<svg xmlns="http://www.w3.org/2000/svg" viewBox="0 0 512 512" fill="#2ab6f4" width="512" height="512"><path d="M240.3 420.2c-.9-5.3-1.4-10.7-1.4-16.2 0-3.9.3-7.8.7-11.7l-12.4-9.3c2.5-13.4 7.5-25.8 14.3-37l15.2 1.7c5.4-7.7 12-14.5 19.4-20.4l-2.2-15.3c10.9-7.4 23.2-12.9 36.3-16l9.5 12c5.3-.9 10.8-1.4 16.4-1.4 3.9 0 7.8.3 11.7.7l9.3-12.4c13.3 2.6 25.8 7.5 37 14.3l-1.7 15.2c7.6 5.4 14.4 11.9 20.2 19.2l10.5-1.5 50-86.2-110.6-191H140.8l-54.4 93.8c2.1.1 4.2.3 6.2.6l9.3-12.4c13.3 2.6 25.8 7.5 37 14.3l-1.7 15.2c7.6 5.4 14.4 11.9 20.2 19.2l15.3-2.2c7.5 11 13 23.3 16.2 36.6l-12 9.5c.9 5.3 1.4 10.8 1.4 16.4 0 4-.3 7.8-.7 11.7l12.4 9.3c-2.6 13.3-7.5 25.8-14.3 37l-15.2-1.7c-5.4 7.7-12 14.5-19.4 20.3l2.1 15.3c-10.9 7.4-23.2 12.9-36.3 16l-9.5-12c-3.6.6-7.3 1-11 1.2l54.4 93.8H234c-2.3-5.6-4.3-11.4-5.7-17.4l12-9.2zm-21.9-148.1l-7.9 1.1c-3.8-5.6-6.6-12-8.2-18.8l6.1-4.9c-.5-2.7-.7-5.5-.7-8.3 0-2 .1-4 .4-6l-6.3-4.8c1.3-6.8 3.8-13.2 7.4-19l7.8.9c2.8-3.9 6.1-7.5 9.9-10.4l-1.1-7.9c5.6-3.8 11.9-6.6 18.6-8.2l4.9 6.1c2.7-.5 5.6-.7 8.4-.7 2 0 4 .1 6 .4l4.8-6.3c6.8 1.3 13.2 3.8 19 7.4l-.9 7.8c3.9 2.8 7.4 6.1 10.4 9.8l7.9-1.1c3.8 5.6 6.7 11.9 8.3 18.7l-6.1 4.9c.5 2.7.7 5.6.7 8.4 0 2-.1 4-.4 6l6.3 4.8c-1.3 6.8-3.8 13.2-7.4 19l-7.8-.9c-2.8 3.9-6.1 7.4-9.9 10.4l1.1 7.9c-5.6 3.8-11.9 6.6-18.6 8.2l-4.9-6.1c-2.7.5-5.6.7-8.4.7-2 0-4-.1-6-.4l-4.8 6.3c-6.8-1.3-13.3-3.8-19-7.4l.9-7.8c-4.1-2.7-7.6-6-10.5-9.8z"></path><path d="M237.9 241.3c0 1.1.1 2.2.3 3.3l-2.4 1.9c.6 2.7 1.8 5.2 3.3 7.4l3.1-.4c1.2 1.5 2.6 2.8 4.1 3.9l-.4 3.1c2.3 1.4 4.8 2.4 7.5 2.9l1.9-2.5c.8.1 1.6.2 2.4.2 1.1 0 2.2-.1 3.3-.3l1.9 2.4c2.7-.6 5.2-1.8 7.4-3.2l-.4-3.1c1.5-1.2 2.8-2.6 3.9-4.1l3.1.4c1.4-2.3 2.4-4.8 2.9-7.5l-2.5-1.9c.1-.8.2-1.6.2-2.4 0-1.1-.1-2.2-.3-3.3l2.4-1.9c-.6-2.7-1.8-5.2-3.3-7.4l-3.1.4c-1.2-1.5-2.5-2.8-4.1-3.9l.4-3.1c-2.3-1.4-4.8-2.4-7.5-2.9l-1.9 2.5c-.8-.1-1.6-.2-2.4-.2-1.1 0-2.2.1-3.3.3l-1.9-2.4c-2.7.6-5.2 1.8-7.4 3.2l.4 3.1c-1.5 1.2-2.8 2.6-3.9 4.1l-3.1-.4c-1.4 2.3-2.4 4.8-2.9 7.5l2.5 1.9c-.1.8-.2 1.6-.2 2.4zM104.7 286.2c2.9-2.3 5.5-5 7.6-8l6 .7c2.7-4.4 4.7-9.4 5.7-14.6l-4.9-3.7c.2-1.5.3-3 .3-4.6 0-2.2-.2-4.4-.6-6.5l4.8-3.8c-1.3-5.2-3.4-10.1-6.4-14.4l-6.1.9c-2.3-2.9-5-5.4-8-7.6l.7-6c-4.4-2.7-9.4-4.7-14.6-5.7l-3.7 4.9c-1.5-.2-3-.3-4.6-.3-2.2 0-4.4.2-6.5.6l-3.8-4.8c-5.2 1.2-10.1 3.4-14.4 6.3l.9 6.1c-2.9 2.3-5.5 5-7.6 8l-6-.7c-2.7 4.4-4.7 9.4-5.7 14.6l4.9 3.7c-.2 1.5-.3 3-.3 4.6 0 2.2.2 4.3.6 6.4l-4.8 3.8c1.2 5.3 3.4 10.1 6.4 14.5l6.1-.9c2.3 2.9 5 5.5 8 7.6l-.7 6c4.4 2.7 9.4 4.7 14.6 5.7l3.7-4.9c1.5.2 3 .3 4.6.3 2.2 0 4.4-.2 6.5-.6l3.8 4.8c5.2-1.2 10.1-3.4 14.4-6.3l-.9-6.1zM328 447.1l3.8-4.9c1.5.2 3 .3 4.6.3 2.2 0 4.4-.2 6.5-.6l3.8 4.8c5.2-1.2 10.1-3.4 14.4-6.3l-.9-6.1c2.9-2.3 5.5-5 7.6-8l6 .7c2.7-4.4 4.7-9.4 5.7-14.6l-4.9-3.7c.2-1.5.3-3 .3-4.6 0-2.2-.2-4.4-.6-6.5l4.8-3.8c-1.3-5.2-3.4-10.1-6.4-14.4l-6.1.9c-2.3-2.9-5-5.4-8-7.6l.7-6c-4.4-2.7-9.4-4.7-14.6-5.7l-3.7 4.9c-1.5-.2-3-.3-4.6-.3-2.2 0-4.4.2-6.5.6l-3.8-4.8c-5.2 1.2-10.1 3.4-14.4 6.3l.9 6.1c-2.9 2.3-5.5 5-7.6 8l-6-.7c-2.7 4.4-4.7 9.4-5.7 14.6l4.9 3.7c-.2 1.5-.3 3-.3 4.6 0 2.2.2 4.3.6 6.4l-4.8 3.8c1.2 5.3 3.4 10.1 6.4 14.5l6.1-.9c2.3 2.9 5 5.5 8 7.6l-.7 6c4.3 2.6 9.1 4.6 14.2 5.6l.3.1z"></path></svg>