<svg version="1.1" id="Layer_1" xmlns="http://www.w3.org/2000/svg" xlink="http://www.w3.org/1999/xlink" x="0px" y="0px" width="512px" height="512px" viewBox="0 0 512 512" enable-background="new 0 0 512 512" space="preserve" fill="#5ead35"><path d="M416,164.07304c-22.05676,0-40,17.94038-40,39.998c0,3.75685,0.55637,7.37801,1.52875,10.826	c0.26562,0.94238,0.57562,1.86523,0.90726,2.77838l-29.19525,37.90723c-1.03638-0.08075-2.07999-0.13675-3.13715-0.13675	c-0.01959,0-0.03836,0.00314-0.05798,0.00314c-5.35638,0.00885-10.46286,1.08684-15.13486,3.01237	c-0.70953,0.29324-1.40039,0.62247-2.08878,0.95325l-20.94598-16.92363c-0.04163-1.42-0.12238-2.82838-0.30038-4.21114	c-2.526-19.64163-19.31686-34.88362-39.63638-34.88362c-22.05562,0-39.99886,17.94438-39.99886,40.00076	c0,0.256,0.03323,0.50323,0.03838,0.75685c0.024,1.26076,0.11685,2.50514,0.25447,3.73438l-57.18361,54.34076	c-1.12839-0.22562-2.27286-0.40598-3.43362-0.53476c-1.45599-0.16238-2.93076-0.25998-4.42876-0.25998	c-22.05647,0-40,17.94037-40,39.99799c0,22.05676,17.94353,40.00201,40,40.00201c22.05714,0,40-17.94525,40-40.00201	c0-1.77124-0.15486-3.504-0.37962-5.21686c-0.132-1.004-0.31523-1.992-0.51962-2.97238l54.25278-51.55399	c0.88922,0.26559,1.78323,0.51959,2.69724,0.72284c2.8056,0.62601,5.70999,0.98154,8.70123,0.98154	c4.90237,0,9.57953-0.92877,13.92401-2.54877c0.776-0.29037,1.53275-0.61838,2.28513-0.95325l22.06763,17.82886	c0.09961,1.53516,0.25674,3.056,0.51401,4.54401c3.25,18.81277,19.64523,33.18475,39.3736,33.18475	c22.056,0,40.00076-17.94562,40.00076-40.00113c0-3.22849-0.42599-6.35049-1.15076-9.35925	c-0.26285-1.09-0.57086-2.16199-0.92038-3.21475l29.81277-38.89162c0.716,0.03799,1.42838,0.09076,2.15399,0.09076	c0.46799,0,0.92276-0.05476,1.38638-0.07037C438.798,243.26343,456,225.65904,456,204.07104	C456,182.01343,438.05676,164.07304,416,164.07304z M163.18724,361.15906c-10.87686,0-19.72447-8.84763-19.72447-19.72678	c0-10.87485,8.84761-19.72238,19.72447-19.72238c10.87714,0,19.72476,8.84753,19.72476,19.72238	C182.912,352.31143,174.06438,361.15906,163.18724,361.15906z M248.21477,243.39705c0-10.87877,8.84761-19.72638,19.72447-19.72638	c10.87714,0,19.72675,8.84761,19.72675,19.72638c0,10.87523-8.84961,19.72285-19.72675,19.72285	C257.06238,263.1199,248.21477,254.27228,248.21477,243.39705z M346.10361,315.17465c-10.87683,0-19.72485-8.8476-19.72485-19.72675	c0-10.87888,8.84802-19.72647,19.72485-19.72647c10.87677,0,19.72638,8.8476,19.72638,19.72647	C365.82999,306.32706,356.98038,315.17465,346.10361,315.17465z M434.88199,209.46143	c-2.36237,8.24847-9.88599,14.336-18.88199,14.336c-10.87677,0-19.7244-8.84752-19.7244-19.72638	c0-7.05476,3.75278-13.20714,9.33765-16.69315c3.02438-1.88885,6.56552-3.02962,10.38675-3.02962	c10.87723,0,19.72476,8.84763,19.72476,19.72276C435.72476,205.9519,435.37601,207.73705,434.88199,209.46143z"></path><path d="M439.06638,417.37711H94.6328V72.93962c0-9.31674-7.62276-16.93952-16.9395-16.93952h-4.7499	C63.6172,56.0001,56,63.6271,56,72.93962v366.12097c0,9.31247,7.6172,16.93948,16.9434,16.93948h366.12299	c9.31351,0,16.93362-7.62012,16.93362-16.93359v-4.75189C456,424.9845,448.37701,417.37711,439.06638,417.37711z"></path></svg>