<svg xmlns="http://www.w3.org/2000/svg" viewBox="0 0 512 512" fill="#9cd575" width="512" height="512"><path d="M208.1 228l46.4 21.6c3.4 1.6 7.2 1.6 10.6 0l46.4-21.6c3.6-1.7 5.8-5.5 5.4-9.6l-4.4-48.9c-.4-5-3.5-9.4-8-11.6l-9.6-4.8c-6.7-3.3-14.1-5.1-21.5-5.1H246c-7.5 0-14.8 1.7-21.5 5.1l-9.6 4.8c-4.5 2.2-7.5 6.7-8 11.6l-4.4 48.8c-.3 4.1 1.9 8 5.6 9.7zm5-22.6l2.4-23.5h88.7l2.4 23.5c.3 4.5-2.5 8.7-6.8 10l-17.5 5.4c-2.9.9-6.1 0-8-2.3l-7-8.1c-1.8-2.1-4.5-3.4-7.3-3.4s-5.5 1.2-7.3 3.4l-7 8.1c-2 2.3-5.2 3.2-8 2.3l-17.6-5.4c-4.6-1.3-7.4-5.4-7-10zM311.1 291.5l-44.4 24.4c-2.1 1.2-4.5 1.8-6.9 1.8s-4.8-.6-6.9-1.8l-44.4-24.4c-1.6.8-2.6 2.5-2.6 4.3v3.5c0 2.6 1.1 5.1 2.9 6.9l45.7 44c3 2.9 7.7 2.9 10.7 0l45.7-44c1.9-1.8 2.9-4.3 2.9-6.9v-3.5c-.1-1.9-1.1-3.5-2.7-4.3z"></path><path d="M316.4 269.3l-1.7-.3c-36.3-7-73.6-7-109.9 0l-1.7.3c-1.8.3-3.1 1.9-3.1 3.8v4.3c0 2.5 1.3 4.7 3.5 5.9l51.6 28.3c2.9 1.6 6.4 1.6 9.3 0l51.6-28.3c2.2-1.2 3.5-3.5 3.5-5.9v-4.3c.1-1.9-1.2-3.5-3.1-3.8z"></path><circle cx="100" cy="394" r="30"></circle><path d="M389 250c0-29.2-9.7-56.1-26.1-77.7l8.7-6.6-4.8-6.4-8.9 6.7c-23.7-27.5-58.8-45-97.9-45-36.6 0-69.7 15.3-93.2 39.9l-7.7-7.1-5.4 5.9 7.8 7.1c-19 22.5-30.4 51.5-30.4 83.1 0 71.1 57.9 129 129 129 29.2 0 56.2-9.8 77.8-26.2l7.8 8.6 5.9-5.4-7.5-8.3c27.4-23.5 44.9-58.5 44.9-97.6zm-250 0c0-66.7 54.3-121 121-121s121 54.3 121 121-54.3 121-121 121-121-54.3-121-121zM377 375c-2.5 0-4.9.5-7.1 1.3l-10.3-11.4-5.9 5.4 9.4 10.4c-3.7 3.6-6 8.7-6 14.3 0 11 9 20 20 20s20-9 20-20c-.1-11-9.1-20-20.1-20zM427 316c-4.3 0-8.2 1.8-10.9 4.7l-9.1-4.2-3.4 7.3 8.7 4c-.2 1-.4 2.1-.4 3.2 0 8.3 6.7 15 15 15s15-6.7 15-15c.1-8.3-6.6-15-14.9-15zM100 128c5.1 0 9.8-1.9 13.3-5.1l9.3 8.5 5.4-5.9-9.9-9.1c1.2-2.6 1.9-5.4 1.9-8.4 0-11-9-20-20-20s-20 9-20 20 9 20 20 20zM131.437 139.473l5.4-5.903 13.28 12.15-5.4 5.903z"></path><path d="M148.836 350.428l13.92-11.412 5.073 6.187-13.921 11.412zM125.612 369.39l13.92-11.413 5.072 6.187-13.92 11.412zM381.2 158.5l10.8-8.2c5.3 4.8 12.3 7.7 20 7.7 16.6 0 30-13.4 30-30s-13.4-30-30-30-30 13.4-30 30c0 6 1.8 11.5 4.8 16.2l-10.4 7.9 4.8 6.4zM376.39 311.23l3.353-7.264 16.342 7.545-3.353 7.264z"></path></svg>