<svg xmlns="http://www.w3.org/2000/svg" viewBox="0 0 512 512" fill="#a972cc" width="512" height="512"><path d="M362.323 313.33v-37.578l-37.579 37.578z"></path><circle cx="236.71" cy="298.662" r="13.649"></circle><path d="M251.65 325.564c-5.11 0-9.267 4.158-9.267 9.267 0 5.11 4.157 9.268 9.267 9.268s9.268-4.158 9.268-9.268-4.158-9.267-9.268-9.267zM259.82 283.665c5.11 0 9.267-4.157 9.267-9.268 0-5.109-4.158-9.266-9.268-9.266s-9.267 4.157-9.267 9.266c0 5.11 4.157 9.268 9.267 9.268zM265.612 305.59c0 5.11 4.157 9.267 9.267 9.267s9.267-4.157 9.267-9.267c0-5.11-4.157-9.267-9.267-9.267s-9.267 4.157-9.267 9.267zM246.17 234.554v-36.371l-18.186 18.185zM447.078 308.599l-32.757-18.565v13.615H391.73v-54.842l-38.82-38.82v-19.828l-12.25-12.25v37.152l38.82 38.82v62.018h34.842v11.264z"></path><path d="M379.042 355.041l-24.805 24.806v26.614l-17.27 17.268h-41.615l-17.75-17.749v-40.537l9.49-13.095v44.908l13.585 13.83h27.93l13.834-13.833v-39.339h12.26l-18.565-32.757-18.564 32.757h12.619v34.265l-6.658 6.658h-17.717l-6.473-6.592v-56.8l20.584-28.406-15.831-35.485 26.849-26.849 8.959 9.036-13.453 13.338v15.05l1.096 1.115 29.68-29.43-26.245-26.47-32.231 32.23-6.269-14.05 29.192-29.192-44.103-44.042v-49.613l18.247-18.247h2.303l16.858 16.843v53.021l-12.484-12.484v-24.047l-12.25-12.25v41.37l36.984 36.985v-87.67L303.192 92.18h-12.448l-25.423 25.423v59.767l39.023 38.967-26.417 26.417h-44.5l-26.416-26.416 39.023-38.968v-59.767l-25.02-25.021V76.729h11.93L214.38 43.972l-18.565 32.757h11.932v15.89l-23.622 23.575v87.674l36.984-36.984v-41.371l-12.25 12.25v24.047l-12.483 12.484v-53.018l16.89-16.857h2.26l18.258 18.258v49.613l-44.104 44.042 28.34 28.34-6.348 14.231-31.563-31.563-21.226 21.44v39.096H146.23l18.565 32.757 18.564-32.757h-12.227v-34.059l9.019-9.109 26.175 26.175-16.131 36.156 21.816 30.105v55.101l-6.473 6.592h-4.77v-67.15H144.54v19.54l22.37 22.37v27.01l10.501 10.5.335.293h1.414v-42.877l-22.37-22.37v-2.215h31.727v67.149h22.16l13.584-13.831v-43.21l9.49 13.096v38.839l-17.75 17.749h-41.614l-23.057-23.057V374.06l-19.018-19.019v-24.504h-12.25v29.578l19.018 19.019v26.613l30.232 30.233h51.764l24.925-24.925v-40.54h19.35v40.54l24.452 24.452v20.657l12.25 12.25v-32.433h39.987l24.446-24.447v-26.613l24.805-24.806v-29.578h-12.25v24.504zm-174.779-49.466l22.562-50.57h56.473l22.562 50.57-38.185 52.69h-25.227L223.19 331.69l-18.926-26.115z"></path><path d="M265.185 198.183v36.37l18.185-18.185zM131.875 253.88l38.82-38.82v-37.15l-12.25 12.25v19.826l-38.82 38.82v54.843H66.907l12.25 12.25h52.718zM146.415 184.083l23.98-23.979V142.78l-36.23 36.23v36.419l12.25-12.25zM364.94 203.179l12.25 12.25v-36.42l-36.23-36.229v17.324l23.98 23.979z"></path></svg>