<svg xmlns="http://www.w3.org/2000/svg" id="Layer_1" fill="#612c85" viewBox="0 0 512 512" x="0px" y="0px" width="512px" height="512px" space="preserve" enable-background="new 0 0 512 512" xlink="http://www.w3.org/1999/xlink" version="1.1"><rect x="306.095" y="221.499" width="63.7129" height="50.7479" /><rect x="386.494" y="114.215" width="63.7124" height="158.022" /><rect x="306.095" y="114.221" width="63.7129" height="86.5771" /><path d="M 211.695 176.94 c -19.1689 0 -34.7649 15.594 -34.7649 34.7668 c 0 1.67412 0.16255 3.31285 0.394 4.92647 c 2.4585 -2.15526 4.81473 -4.20512 7.03836 -6.13681 c 0.64409 -14.5472 12.6337 -26.1847 27.3326 -26.1847 c 15.1074 0 27.3885 12.2817 27.3885 27.3951 c 0 15.1055 -12.2811 27.3871 -27.3885 27.3871 c -0.20491 0 -0.40923 -0.02663 -0.61354 -0.02663 c -2.08386 2.12721 -4.26624 4.36819 -6.50468 6.65979 c 2.29945 0.48112 4.67485 0.73717 7.11823 0.73717 c 19.1684 0 34.7609 -15.5925 34.7609 -34.7575 C 246.456 192.534 230.863 176.94 211.695 176.94 Z" /><path d="M 211.695 157.907 c -29.666 0 -53.7934 24.1388 -53.7934 53.7994 c 0 6.67653 1.231 13.0694 3.46997 18.9754 c 2.00015 -1.77658 3.99294 -3.53653 5.97041 -5.28456 c -1.34134 -4.32826 -2.06903 -8.92729 -2.06903 -13.6908 c 0 -25.5992 20.8248 -46.4216 46.4221 -46.4216 c 25.6012 0 46.425 20.8223 46.425 46.4216 c 0 25.5913 -20.8238 46.4122 -46.425 46.4122 c -5.74301 0 -11.221 -1.0892 -16.3051 -3.01202 c -1.89427 1.93954 -3.76938 3.85257 -5.59517 5.707 c 6.69771 2.99875 14.1039 4.6788 21.9002 4.6788 c 29.662 0 53.7973 -24.1259 53.7973 -53.786 C 265.492 182.046 241.357 157.907 211.695 157.907 Z" /><path d="M 154.598 114.216 v 73.409 c 9.39459 -22.2543 31.42 -37.8735 57.097 -37.8735 c 34.2123 0 61.9456 27.7378 61.9456 61.9497 c 0 29.7345 -20.9528 54.5458 -48.892 60.5443 h 65.621 V 114.216 H 154.598 Z" /><path d="M 485.04 68.0058 H 119.716 c -6.05291 0 -10.9597 4.90681 -10.9597 10.9597 V 261.349 c 1.43068 0.23557 2.88184 0.51642 4.36859 0.88873 c 2.93428 0.73175 6.63176 1.93188 9.50967 2.91714 c 2.73108 -2.44366 6.83282 -6.1105 11.7608 -10.5061 V 93.5785 h 336.014 v 198.698 H 189.684 c -0.11324 1.82883 -0.38654 3.60226 -0.7394 5.23404 c 3.5567 2.10522 6.97423 5.40912 8.84541 10.3647 c 2.5558 6.80551 0.69995 14.6027 -1.81158 20.2484 c 2.37167 2.92923 4.77753 6.93951 5.42485 11.6449 h 64.4235 v 29.226 h -43.8207 c -6.02809 0 -10.9598 4.93192 -10.9598 10.9598 v 14.613 h 182.662 v -14.613 c 0 -6.02789 -4.93173 -10.9598 -10.9597 -10.9598 h -43.8574 v -29.226 h 146.148 c 6.05292 0 10.9597 -4.9068 10.9597 -10.9597 V 78.9655 C 496 72.9126 491.093 68.0058 485.04 68.0058 Z" /><path d="M 16 384.437 c 0 0 43.3002 -18.3693 46.164 -60.8604 c 0.94693 -14.0735 2.37146 -11.414 10.6222 -28.1829 c 8.14886 -16.5738 15.5207 -31.0526 38.3866 -25.3284 c 5.16386 1.28769 13.2777 4.29184 13.2777 4.29184 s 69.773 -62.5312 81.2057 -71.3201 c 4.2962 -3.29964 10.9747 -2.87317 14.2512 0.70461 c 3.43599 3.77724 3.30801 10.8842 0.32603 14.0322 c -8.82645 9.36455 -58.5974 59.8397 -58.5974 59.8397 s 13.2029 -0.85245 18.3855 6.54404 c 4.29176 6.12753 -1.0878 18.2461 -1.0878 18.2461 s 8.48567 0.84299 11.3042 8.30792 c 2.33749 6.22394 -1.6362 15.5167 -4.26917 18.7365 c 0 0 7.3531 5.80936 7.53482 12.513 c 0.17033 6.11218 -6.51547 20.2655 -21.2444 30.2342 c -14.7289 9.95551 -22.3966 15.6058 -39.3152 20.521 c -16.7936 4.86594 -19.3733 5.80157 -24.8508 10.1505 c -5.70902 4.52713 -38.8415 41.1278 -38.8415 41.1278 L 16 384.437 Z" /></svg>