<svg viewBox="0 0 512 512" xmlns="http://www.w3.org/2000/svg" fill="#ffe11c" width="512" height="512"><path d="M271.615 275.477c-17.63 17.63-17.63 46.215 0 63.845 17.63 17.63 46.215 17.63 63.845 0 17.63-17.63 17.63-46.215 0-63.845-17.63-17.63-46.215-17.63-63.845 0zm47.726 47.768c-8.731 8.731-22.876 8.731-31.607 0-8.731-8.731-8.731-22.877 0-31.608 8.731-8.731 22.876-8.731 31.607 0 8.731 8.689 8.731 22.877 0 31.608zm15.364-269.904l-27.662 27.662c-5.415 5.415-5.415 14.314 0 19.729l108.003 108.003c5.415 5.415 14.314 5.415 19.729 0l27.662-27.662c5.415-5.415 5.415-14.314 0-19.728L354.391 53.341c-5.415-5.415-14.272-5.415-19.686 0zM140.902 406.819c4.912-4.911 4.912-12.929 0-17.84l-14.062-14.062c-4.911-4.911-12.928-4.911-17.839 0l-29.047 29.048-.042.042-7.976-7.976c-4.407-4.407-11.585-4.407-15.95 0-4.408 4.408-4.408 11.586 0 15.951l47.852 47.852c4.407 4.408 11.585 4.408 15.951 0 4.365-4.407 4.407-11.585 0-15.95l-7.976-7.976.042-.042 29.047-29.047zm146.328-274.06l-61.453 61.453c-5.456 5.456-5.456 14.439 0 19.896l37.947 37.946c26.822-19.309 64.432-16.916 88.568 7.22l30.727-30.726c5.457-5.457 5.457-14.44 0-19.897l-75.893-75.892c-5.456-5.499-14.439-5.499-19.896 0zm-39.457 135.288l-22.415-22.415c-5.247-5.247-13.852-5.247-19.099 0l-79.041 79.082c-5.247 5.247-5.247 13.852 0 19.099l44.788 44.788c5.247 5.247 13.852 5.247 19.099 0l50.833-50.916c-10.746-22.205-8.815-49.028 5.835-69.638z"></path></svg>